PathFileType	4	(X/Y/Z)	C:/Users/opensim2020/Desktop/walking_exp_matlab/subject01_walking10_straight_04.trc	
DataRate	CameraRate	NumFrames	NumMarkers	Units	OrigDataRate	OrigDataStartFrame	OrigNumFrames	
100.00	100.00	8	43	mm	100.00	4027	274	
Frame#	Time	LFHD			RFHD			LBHD			RBHD			C7			T10			CLAV			STRN			RBAK			LSHO			LUPA			LELB			LFRM			LWRA			LWRB			LFIN			RSHO			RUPA			RELB			RFRM			RWRA			RWRB			RFIN			LASI			RASI			LPSI			RPSI			LTHI			LKNE			LTIB			LANK			LHEE			LTOE			RTHI			RKNE			RTIB			RANK			RHEE			RTOE			*39			*40			*41			*42			
		X1	Y1	Z1	X2	Y2	Z2	X3	Y3	Z3	X4	Y4	Z4	X5	Y5	Z5	X6	Y6	Z6	X7	Y7	Z7	X8	Y8	Z8	X9	Y9	Z9	X10	Y10	Z10	X11	Y11	Z11	X12	Y12	Z12	X13	Y13	Z13	X14	Y14	Z14	X15	Y15	Z15	X16	Y16	Z16	X17	Y17	Z17	X18	Y18	Z18	X19	Y19	Z19	X20	Y20	Z20	X21	Y21	Z21	X22	Y22	Z22	X23	Y23	Z23	X24	Y24	Z24	X25	Y25	Z25	X26	Y26	Z26	X27	Y27	Z27	X28	Y28	Z28	X29	Y29	Z29	X30	Y30	Z30	X31	Y31	Z31	X32	Y32	Z32	X33	Y33	Z33	X34	Y34	Z34	X35	Y35	Z35	X36	Y36	Z36	X37	Y37	Z37	X38	Y38	Z38	X39	Y39	Z39	X40	Y40	Z40	X41	Y41	Z41	X42	Y42	Z42	X43	Y43	Z43	

206	2.050	-1038.40063	-389.29163	1672.95264	-1141.38721	-439.51398	1672.50256	-1086.49890	-276.33115	1644.70044	-1195.63135	-326.90042	1644.40991	-1120.09058	-233.53679	1437.15674	-1119.78418	-196.59770	1145.80762	-1102.13110	-380.20416	1375.76514	-1090.49927	-421.20166	1220.12097	-1200.38428	-190.48413	1242.36426	-948.94751	-302.38916	1410.57849	-861.83868	-265.88052	1228.90088	-859.86200	-249.55571	1078.41687	-828.40698	-285.99185	971.68866	-835.80200	-366.84988	856.72845	-816.53833	-310.17511	851.94592	-801.67627	-357.81937	782.27301	-1259.76843	-332.10843	1399.31531	-1365.58374	-300.05698	1195.87207	-1368.74524	-310.44885	1071.91687	-1396.67310	-352.53870	958.94012	-1369.77124	-442.63940	850.30090	-1413.35022	-403.59064	847.83984	-1408.00574	-446.84146	773.01630	-994.12482	-361.66779	941.56201	-1210.38062	-378.69873	937.66315	-1057.48889	-180.55855	949.06714	-1202.11450	-191.22804	952.00677	-922.12268	-396.42056	619.55298	-931.54419	-411.43607	486.95630	-931.52582	-293.93338	342.97433	-986.20032	-179.85632	157.47154	-1048.83960	-138.04578	143.00595	-954.84406	-284.04016	62.54198	-1256.25220	-328.29599	602.23346	-1225.69373	-338.33197	444.47562	-1229.46912	-283.24643	275.81317	-1172.71118	-254.18292	73.31055	-1122.99048	-203.49506	37.07461	-1165.38770	-395.46024	34.11592	-1123.01672	-426.30768	1708.18213	-3102.13208	1973.10779	1023.72052	-3140.65942	2012.51318	1022.07489			 
207	2.060	-1038.40442	-396.66290	1672.76709	-1141.20374	-447.00140	1672.27832	-1086.51550	-283.72076	1644.67456	-1195.76575	-334.41989	1644.49658	-1120.62646	-240.69533	1437.26257	-1120.48193	-203.31650	1145.95239	-1102.32532	-387.01978	1375.62549	-1090.84851	-427.92261	1220.02209	-1201.12573	-197.39595	1242.59802	-949.30219	-309.03214	1410.54541	-862.45660	-271.69269	1228.80701	-860.82855	-254.32077	1078.57422	-829.37769	-289.48990	971.48541	-836.98895	-368.69061	855.40204	-817.33484	-312.09592	851.33850	-802.96820	-358.70361	781.00623	-1260.03271	-339.22858	1399.53491	-1366.19421	-307.66724	1196.18030	-1369.68164	-318.61484	1072.25977	-1397.76465	-361.38226	959.55164	-1370.66040	-452.28604	851.54944	-1414.31238	-413.26917	848.86346	-1408.90796	-457.00150	774.29480	-994.66003	-368.39764	941.72949	-1210.87402	-385.04688	937.29352	-1057.74316	-187.09120	949.37897	-1202.28113	-197.69937	952.08533	-922.50397	-405.85464	620.91968	-932.42596	-422.12064	488.14032	-932.05646	-308.86749	340.26514	-986.48993	-201.53792	150.75369	-1049.23071	-159.96581	134.33240	-953.48505	-309.04568	60.50628	-1256.51294	-332.31976	601.95471	-1225.79846	-341.25861	444.11612	-1229.57031	-285.17334	275.87228	-1172.67493	-254.09756	73.63703	-1123.02319	-203.54173	37.60152	-1165.42810	-395.70361	34.15657	-1122.90234	-433.88351	1708.02600	-3102.29224	1973.05981	1024.04932	-3140.56372	2012.53870	1022.08734			 
208	2.070	-1037.97998	-404.38211	1672.59692	-1141.08203	-454.49164	1672.04285	-1086.71252	-291.01450	1644.70496	-1195.96851	-341.84427	1644.59204	-1120.45898	-247.60928	1437.26196	-1121.19873	-210.08337	1146.03455	-1102.52576	-393.98608	1375.59619	-1091.17175	-434.62677	1219.81189	-1201.86670	-204.39307	1242.79736	-949.59479	-315.78113	1410.35596	-863.09570	-277.63321	1228.70178	-861.78143	-259.61560	1078.57227	-830.23767	-292.97186	971.21960	-838.13147	-370.63959	854.00647	-818.66638	-313.82657	850.83716	-804.11627	-359.74838	779.72186	-1260.19666	-346.36295	1399.69421	-1366.87158	-315.12674	1196.48230	-1370.61206	-326.70496	1072.59717	-1398.61523	-370.28735	960.13977	-1371.50317	-461.85458	852.74182	-1415.22205	-422.91635	849.77667	-1409.67175	-467.09921	775.42621	-995.02087	-374.96329	941.75677	-1211.32202	-391.31961	936.86554	-1057.88806	-193.58534	949.62268	-1202.40906	-203.98927	952.23273	-922.80316	-415.18927	622.06421	-933.27863	-432.54123	489.21478	-932.70062	-323.55542	337.40317	-986.59534	-223.27116	143.79514	-1049.39783	-182.92451	125.05186	-952.12622	-334.52408	58.48546	-1256.67493	-336.37067	601.67706	-1225.85095	-344.06812	443.57361	-1229.58533	-286.88156	275.88235	-1172.80811	-254.65594	73.81910	-1123.00122	-203.61896	37.90052	-1165.38904	-395.66324	34.13587	-1122.77039	-441.44974	1707.75854	-3102.34692	1973.03833	1023.98810	-3140.42017	2012.53125	1022.18567			 
209	2.080	-1038.05066	-411.33899	1672.21399	-1140.68127	-461.86401	1671.72461	-1086.78687	-298.39618	1644.76147	-1195.74658	-349.35599	1644.53064	-1121.33997	-254.46150	1437.50793	-1121.89185	-216.84476	1146.07593	-1102.67493	-400.88266	1375.36865	-1091.40564	-441.38580	1219.56104	-1202.59448	-211.30528	1242.95825	-949.78534	-322.52249	1410.10620	-863.63123	-283.40714	1228.46179	-862.48291	-264.10568	1078.72351	-831.16205	-296.58182	970.89545	-839.25983	-372.69189	852.57587	-819.51019	-315.94806	850.23529	-805.22821	-360.79117	778.45087	-1260.38000	-353.52783	1399.75012	-1367.75110	-322.52158	1196.78687	-1371.55029	-334.74152	1072.89038	-1399.67480	-379.00912	960.66296	-1372.33435	-471.42575	853.92596	-1416.12366	-432.47235	850.68799	-1410.16785	-477.16217	776.43488	-995.33643	-381.52838	941.67664	-1211.68359	-397.66898	936.34210	-1057.98743	-200.13228	949.79718	-1202.43262	-210.49236	952.27374	-923.00458	-424.17981	623.05029	-934.20013	-442.51990	490.07904	-932.99731	-338.21524	334.51794	-986.63458	-245.46040	136.88992	-1049.70325	-206.36954	116.08537	-950.66388	-360.07846	56.64162	-1256.53992	-340.50763	601.27740	-1226.00696	-346.88254	443.29089	-1229.57434	-288.41284	275.80905	-1172.76392	-254.85068	74.12816	-1123.12781	-204.16443	38.44636	-1165.40149	-395.76416	34.08007	-1122.43652	-448.80701	1707.42505	-3102.63330	1972.99426	1024.02576						 
210	2.090	-1037.50549	-419.11053	1671.92908	-1140.37341	-469.24704	1671.42322	-1086.71741	-305.64828	1644.60596	-1195.49438	-356.87433	1644.35291	-1121.05383	-261.80347	1437.19897	-1122.53564	-223.56430	1146.07336	-1102.63599	-407.75748	1374.99243	-1091.60217	-448.14163	1219.21460	-1203.27734	-218.24625	1243.06201	-949.94696	-329.27759	1409.76465	-864.09222	-289.12201	1228.13489	-863.21313	-268.95782	1078.68396	-832.00012	-300.29810	970.42517	-840.33966	-374.87558	851.17511	-820.27936	-318.19806	849.62531	-806.39685	-362.09769	777.04791	-1260.39758	-360.70972	1399.70117	-1367.95825	-330.05493	1196.87476	-1372.42664	-342.73224	1073.09949	-1400.60254	-387.79471	961.12781	-1373.25525	-480.97424	855.12836	-1417.25378	-442.00732	851.46735	-1410.30896	-487.24796	777.27948	-995.56500	-388.17084	941.55676	-1212.01782	-403.87228	935.77179	-1057.96997	-206.63803	949.89899	-1202.58484	-216.58902	952.33923	-923.22699	-432.99847	623.87714	-935.08636	-452.04953	490.90451	-933.40942	-352.57178	331.34280	-986.84906	-268.33307	129.85239	-1049.90320	-230.38181	107.02285	-949.16614	-385.66022	54.69198	-1256.73071	-344.57898	600.91925	-1226.00549	-349.57642	442.74005	-1229.57532	-289.95593	275.80731	-1172.48865	-254.96002	74.31630	-1123.02759	-204.14914	38.75681	-1165.38245	-395.92743	34.08691	-1122.05713	-456.26013	1707.12891	-3101.95581	1973.20862	1024.01685	-3138.23242	2013.11389	1022.44409			 
211	2.100	-1037.33875	-426.94809	1671.61548	-1140.03503	-476.68259	1671.10413	-1086.51709	-312.92468	1644.33630	-1195.33020	-364.22083	1644.27393	-1121.19543	-268.85706	1437.18921	-1123.07385	-230.36488	1146.06262	-1102.65479	-414.82416	1374.72046	-1091.70056	-454.85266	1218.76843	-1203.88281	-225.18721	1243.15186	-950.02325	-336.03842	1409.38110	-864.47400	-294.75754	1227.72180	-863.86432	-274.02975	1078.44263	-832.78290	-304.10217	969.94775	-841.30237	-377.18787	849.75702	-821.05359	-320.58423	848.89435	-807.43445	-363.54666	775.75641	-1260.48535	-367.90598	1399.61169	-1368.47180	-337.55136	1196.99719	-1373.32104	-350.70996	1073.20850	-1401.59351	-396.61758	961.62158	-1373.94006	-490.56723	856.32623	-1418.10107	-451.73489	852.33539	-1410.15247	-497.22101	777.95172	-995.77167	-394.59750	941.33673	-1212.31958	-410.05978	935.18323	-1057.89490	-213.14290	949.91699	-1202.49036	-222.88708	952.21991	-923.39636	-441.47894	624.57458	-935.86700	-460.95657	491.52423	-933.62006	-366.89127	328.10883	-986.76025	-291.48993	122.98651	-1050.38916	-255.32181	98.24722	-947.97589	-411.64444	52.84747	-1256.62439	-348.66373	600.52814	-1225.99463	-352.60745	442.32455	-1229.56763	-291.48340	275.86536	-1172.36816	-255.21861	74.53432	-1122.81360	-204.28856	39.18696	-1165.37830	-395.69043	33.74602	-1121.61255	-463.69388	1706.82288	-3102.10840	1973.03589	1024.00012	-3138.39941	2013.08093	1022.11365			 
212	2.110	-1037.09717	-433.11469	1671.06714	-1139.42346	-484.01401	1670.75830	-1086.25659	-320.23984	1644.14771	-1194.90759	-371.71143	1644.07935	-1121.30005	-276.04321	1436.91418	-1123.47363	-237.15341	1145.92529	-1102.61206	-421.78833	1374.33972	-1091.76062	-461.62750	1218.25952	-1204.35645	-232.09508	1243.15491	-950.03137	-342.77740	1408.84326	-864.89929	-300.53406	1227.21509	-864.55560	-279.03604	1078.17822	-833.48853	-307.95837	969.40656	-842.28717	-379.68427	848.33710	-821.85553	-323.00244	848.20831	-808.43091	-365.20728	774.48920	-1260.39294	-375.17880	1399.46631	-1368.93323	-345.08453	1197.00586	-1374.27405	-358.66135	1073.29309	-1402.48755	-405.54373	962.05261	-1374.52820	-500.14734	857.45721	-1418.65576	-461.62241	853.08069	-1409.69678	-507.20114	778.43530	-995.74323	-401.92218	941.40564	-1212.58472	-416.29642	934.54163	-1057.83752	-219.72836	949.91718	-1202.30408	-229.21385	951.95355	-923.54175	-449.54385	625.11401	-936.52356	-469.28952	491.86948	-933.75641	-381.09851	324.68231	-986.64648	-314.87756	116.31467	-1050.49280	-279.82776	90.09060	-946.78082	-437.76700	51.36326	-1256.37292	-352.74887	600.09277	-1225.95886	-355.34808	441.92462	-1229.40295	-293.21329	275.92700	-1172.28467	-255.52454	74.80855	-1122.66235	-204.50255	39.68747	-1165.33618	-395.80090	33.74540	-1121.17737	-471.23926	1706.50513	-3102.88989	1972.87085	1024.53772	-3138.15430	2013.15601	1022.25415			 
213	2.120	-1036.60059	-440.34384	1670.57788	-1138.79639	-491.34561	1670.36499	-1085.91833	-327.46329	1643.75098	-1194.70178	-379.05353	1643.95056	-1121.78809	-283.13531	1436.91150	-1123.75574	-243.93547	1145.72107	-1102.46069	-428.78479	1373.87756	-1091.72534	-468.32697	1217.67749	-1204.73608	-239.06000	1243.14050	-949.89111	-349.53357	1408.35168	-865.27429	-306.38095	1226.61133	-865.20770	-284.28314	1077.76599	-834.17255	-312.00061	968.76990	-843.17987	-382.31335	846.95947	-822.75134	-325.66608	847.40039	-809.36670	-367.15094	773.23224	-1260.20911	-382.43741	1399.16956	-1369.33496	-352.63907	1196.95959	-1375.31348	-366.61548	1073.37744	-1403.41040	-414.60770	962.47406	-1374.76611	-509.60333	858.45142	-1419.43237	-471.42706	853.80670	-1408.87439	-517.03870	778.91266	-995.74310	-408.78433	941.31097	-1212.80798	-422.41995	933.88385	-1057.69788	-226.27806	949.79852	-1202.13257	-235.47815	951.68091	-923.70636	-457.30341	625.41113	-937.02112	-477.05957	492.04883	-933.82581	-395.34659	321.22977	-986.36017	-338.14264	110.01840	-1050.28857	-305.00763	82.70547	-945.98608	-463.60358	50.09144	-1256.15015	-356.90765	599.65009	-1225.96375	-358.56036	441.51837	-1229.36340	-295.07175	275.90396	-1172.22131	-255.84343	75.10313	-1122.59045	-204.60573	40.16042	-1165.29260	-396.00006	33.81078	-1120.50488	-478.46527	1706.02991	-3102.68579	1972.84668	1024.60095	-3138.63379	2012.98083	1022.09662			 
